<svg xmlns="http://www.w3.org/2000/svg" xmlns:xlink="http://www.w3.org/1999/xlink" width="121" height="136" viewBox="0 0 121 136">
  <defs>
    <filter id="Rectangle_29" x="0" y="0" width="121" height="136" filterUnits="userSpaceOnUse">
      <feOffset dx="3" dy="3" input="SourceAlpha"/>
      <feGaussianBlur stdDeviation="3" result="blur"/>
      <feFlood flood-opacity="0.161"/>
      <feComposite operator="in" in2="blur"/>
      <feComposite in="SourceGraphic"/>
    </filter>
    <filter id="CSS3" x="28" y="78" width="66" height="42" filterUnits="userSpaceOnUse">
      <feOffset dx="3" dy="3" input="SourceAlpha"/>
      <feGaussianBlur stdDeviation="3" result="blur-2"/>
      <feFlood flood-opacity="0.161"/>
      <feComposite operator="in" in2="blur-2"/>
      <feComposite in="SourceGraphic"/>
    </filter>
    <filter id="Icon_simple-css3" x="22" y="12" width="78" height="78" filterUnits="userSpaceOnUse">
      <feOffset dx="3" dy="3" input="SourceAlpha"/>
      <feGaussianBlur stdDeviation="3" result="blur-3"/>
      <feFlood flood-opacity="0.161"/>
      <feComposite operator="in" in2="blur-3"/>
      <feComposite in="SourceGraphic"/>
    </filter>
  </defs>
  <g id="Group_19" data-name="Group 19" transform="translate(-759 -438)">
    <g transform="matrix(1, 0, 0, 1, 759, 438)" filter="url(#Rectangle_29)">
      <rect id="Rectangle_29-2" data-name="Rectangle 29" width="103" height="118" rx="15" transform="translate(6 6)" fill="#0f2d66"/>
    </g>
    <g transform="matrix(1, 0, 0, 1, 759, 438)" filter="url(#CSS3)">
      <text id="CSS3-2" data-name="CSS3" transform="translate(34 103)" fill="#fff" font-size="20" font-family="Roboto-Regular, Roboto"><tspan x="0" y="0">CSS3</tspan></text>
    </g>
    <g transform="matrix(1, 0, 0, 1, 759, 438)" filter="url(#Icon_simple-css3)">
      <path id="Icon_simple-css3-2" data-name="Icon simple-css3" d="M2.25,0h60L56.793,53.908,32.184,60,7.713,53.9ZM51.079,11.033l-37.657-.008.609,6.555,28.929.005-.729,6.79H23.259l.686,6.433H41.607l-1.046,8.807-8.314,2.01L23.8,39.6l-.537-5.275H15.807l.829,9.638L32.25,48.22,47.6,44.395l3.477-33.36Z" transform="translate(25.75 18)" fill="#fff"/>
    </g>
  </g>
</svg>
