<svg xmlns="http://www.w3.org/2000/svg" xmlns:xlink="http://www.w3.org/1999/xlink" width="121" height="136" viewBox="0 0 121 136">
  <defs>
    <filter id="Rectangle_33" x="0" y="0" width="121" height="136" filterUnits="userSpaceOnUse">
      <feOffset dx="3" dy="3" input="SourceAlpha"/>
      <feGaussianBlur stdDeviation="3" result="blur"/>
      <feFlood flood-opacity="0.161"/>
      <feComposite operator="in" in2="blur"/>
      <feComposite in="SourceGraphic"/>
    </filter>
    <filter id="Figma" x="27" y="78" width="74" height="42" filterUnits="userSpaceOnUse">
      <feOffset dx="3" dy="3" input="SourceAlpha"/>
      <feGaussianBlur stdDeviation="3" result="blur-2"/>
      <feFlood flood-opacity="0.161"/>
      <feComposite operator="in" in2="blur-2"/>
      <feComposite in="SourceGraphic"/>
    </filter>
    <filter id="Icon_awesome-figma" x="25" y="11" width="78" height="78" filterUnits="userSpaceOnUse">
      <feOffset dx="3" dy="3" input="SourceAlpha"/>
      <feGaussianBlur stdDeviation="3" result="blur-3"/>
      <feFlood flood-opacity="0.161"/>
      <feComposite operator="in" in2="blur-3"/>
      <feComposite in="SourceGraphic"/>
    </filter>
  </defs>
  <g id="Group_15" data-name="Group 15" transform="translate(-756 -578)">
    <g transform="matrix(1, 0, 0, 1, 756, 578)" filter="url(#Rectangle_33)">
      <rect id="Rectangle_33-2" data-name="Rectangle 33" width="103" height="118" rx="15" transform="translate(6 6)" fill="#0f2d66"/>
    </g>
    <g transform="matrix(1, 0, 0, 1, 756, 578)" filter="url(#Figma)">
      <text id="Figma-2" data-name="Figma" transform="translate(33 103)" fill="#fff" font-size="20" font-family="Roboto-Regular, Roboto"><tspan x="0" y="0">Figma</tspan></text>
    </g>
    <g transform="matrix(1, 0, 0, 1, 756, 578)" filter="url(#Icon_awesome-figma)">
      <path id="Icon_awesome-figma-2" data-name="Icon awesome-figma" d="M46.472,20c8.283,0,15-4.478,15-10s-6.715-10-15-10h-30C8.2,0,1.487,4.475,1.487,10s6.711,10,14.989,10c-8.283,0-15,4.478-15,10s6.715,10,15,10c-8.283,0-15,4.472-15.007,10S8.175,60,16.459,60s15-4.472,15.007-10V20Zm0,0c-8.278,0-14.989,4.475-14.989,10s6.711,10,14.989,10,14.989-4.475,14.989-10-6.709-9.995-14.987-10Z" transform="translate(29.53 17)" fill="#fff"/>
    </g>
  </g>
</svg>
