<svg xmlns="http://www.w3.org/2000/svg" xmlns:xlink="http://www.w3.org/1999/xlink" width="121" height="136" viewBox="0 0 121 136">
  <defs>
    <filter id="Rectangle_29" x="0" y="0" width="121" height="136" filterUnits="userSpaceOnUse">
      <feOffset dx="3" dy="3" input="SourceAlpha"/>
      <feGaussianBlur stdDeviation="3" result="blur"/>
      <feFlood flood-opacity="0.161"/>
      <feComposite operator="in" in2="blur"/>
      <feComposite in="SourceGraphic"/>
    </filter>
    <filter id="Icon_awesome-html5" x="20.801" y="12" width="78" height="78" filterUnits="userSpaceOnUse">
      <feOffset dx="3" dy="3" input="SourceAlpha"/>
      <feGaussianBlur stdDeviation="3" result="blur-2"/>
      <feFlood flood-opacity="0.161"/>
      <feComposite operator="in" in2="blur-2"/>
      <feComposite in="SourceGraphic"/>
    </filter>
    <filter id="HTML5" x="19" y="78" width="84" height="42" filterUnits="userSpaceOnUse">
      <feOffset dx="3" dy="3" input="SourceAlpha"/>
      <feGaussianBlur stdDeviation="3" result="blur-3"/>
      <feFlood flood-opacity="0.161"/>
      <feComposite operator="in" in2="blur-3"/>
      <feComposite in="SourceGraphic"/>
    </filter>
  </defs>
  <g id="Group_20" data-name="Group 20" transform="translate(-620 -438)">
    <g transform="matrix(1, 0, 0, 1, 620, 438)" filter="url(#Rectangle_29)">
      <rect id="Rectangle_29-2" data-name="Rectangle 29" width="103" height="118" rx="15" transform="translate(6 6)" fill="#0f2d66"/>
    </g>
    <g transform="matrix(1, 0, 0, 1, 620, 438)" filter="url(#Icon_awesome-html5)">
      <path id="Icon_awesome-html5-2" data-name="Icon awesome-html5" d="M0,2.25,5.453,55.259,29.922,62.25l24.625-6.991L60,2.25ZM48.156,19.379H19.438L20.078,26H47.516L45.391,45.871l-15.3,3.616v.04h-.172L14.5,45.871l-.937-10.152h7.453l.547,5.1,8.359,1.942,8.391-1.942.938-8.33H13.172l-2-19.5H48.844Z" transform="translate(26.8 15.75)" fill="#fff"/>
    </g>
    <g transform="matrix(1, 0, 0, 1, 620, 438)" filter="url(#HTML5)">
      <text id="HTML5-2" data-name="HTML5" transform="translate(25 103)" fill="#fff" font-size="20" font-family="Roboto-Regular, Roboto"><tspan x="0" y="0">HTML5</tspan></text>
    </g>
  </g>
</svg>
