<svg xmlns="http://www.w3.org/2000/svg" xmlns:xlink="http://www.w3.org/1999/xlink" width="121" height="136" viewBox="0 0 121 136">
  <defs>
    <filter id="Rectangle_35" x="0" y="0" width="121" height="136" filterUnits="userSpaceOnUse">
      <feOffset dx="3" dy="3" input="SourceAlpha"/>
      <feGaussianBlur stdDeviation="3" result="blur"/>
      <feFlood flood-opacity="0.161"/>
      <feComposite operator="in" in2="blur"/>
      <feComposite in="SourceGraphic"/>
    </filter>
    <filter id="Adobe" x="23" y="78" width="76" height="42" filterUnits="userSpaceOnUse">
      <feOffset dx="3" dy="3" input="SourceAlpha"/>
      <feGaussianBlur stdDeviation="3" result="blur-2"/>
      <feFlood flood-opacity="0.161"/>
      <feComposite operator="in" in2="blur-2"/>
      <feComposite in="SourceGraphic"/>
    </filter>
    <filter id="Icon_simple-adobeillustrator" x="22" y="11" width="78" height="78" filterUnits="userSpaceOnUse">
      <feOffset dx="3" dy="3" input="SourceAlpha"/>
      <feGaussianBlur stdDeviation="3" result="blur-3"/>
      <feFlood flood-opacity="0.161"/>
      <feComposite operator="in" in2="blur-3"/>
      <feComposite in="SourceGraphic"/>
    </filter>
  </defs>
  <g id="Group_13" data-name="Group 13" transform="translate(-1034 -578)">
    <g transform="matrix(1, 0, 0, 1, 1034, 578)" filter="url(#Rectangle_35)">
      <rect id="Rectangle_35-2" data-name="Rectangle 35" width="103" height="118" rx="15" transform="translate(6 6)" fill="#0f2d66"/>
    </g>
    <g transform="matrix(1, 0, 0, 1, 1034, 578)" filter="url(#Adobe)">
      <text id="Adobe-2" data-name="Adobe" transform="translate(29 103)" fill="#fff" font-size="20" font-family="Roboto-Regular, Roboto"><tspan x="0" y="0">Adobe</tspan></text>
    </g>
    <g transform="matrix(1, 0, 0, 1, 1034, 578)" filter="url(#Icon_simple-adobeillustrator)">
      <path id="Icon_simple-adobeillustrator-2" data-name="Icon simple-adobeillustrator" d="M0,.45v60H60V.45ZM2.5,3.014h55V57.886H2.5Zm18.313,31.41-1.98,7.687c-.043.213-.125.262-.37.262h-3.67c-.25,0-.287-.085-.25-.379l7.1-25.5a8.1,8.1,0,0,0,.245-2.136c0-.169.083-.256.208-.256h5.24c.165,0,.25.046.29.256l7.963,27.677c.042.213,0,.338-.208.338H31.255c-.208,0-.33-.051-.37-.221l-2.062-7.731H20.8Zm6.97-4.167c-.7-2.836-2.35-9.046-2.97-12.051H24.77c-.535,3-1.855,8.077-2.888,12.051Zm11.25-14.251a2.558,2.558,0,1,1,5.115,0,2.425,2.425,0,0,1-2.6,2.623,2.381,2.381,0,0,1-2.525-2.623Zm.28,5.831c0-.205.082-.282.29-.282h3.925c.22,0,.3.085.3.3V42.1c0,.213-.04.3-.288.3H39.665c-.25,0-.333-.128-.333-.333V21.835Z" transform="translate(28 16.55)" fill="#fff"/>
    </g>
  </g>
</svg>
