<svg xmlns="http://www.w3.org/2000/svg" xmlns:xlink="http://www.w3.org/1999/xlink" width="121" height="136" viewBox="0 0 121 136">
  <defs>
    <filter id="Rectangle_30" x="0" y="0" width="121" height="136" filterUnits="userSpaceOnUse">
      <feOffset dx="3" dy="3" input="SourceAlpha"/>
      <feGaussianBlur stdDeviation="3" result="blur"/>
      <feFlood flood-opacity="0.161"/>
      <feComposite operator="in" in2="blur"/>
      <feComposite in="SourceGraphic"/>
    </filter>
    <filter id="JavaScript" x="17" y="84" width="89" height="36" filterUnits="userSpaceOnUse">
      <feOffset dx="3" dy="3" input="SourceAlpha"/>
      <feGaussianBlur stdDeviation="3" result="blur-2"/>
      <feFlood flood-opacity="0.161"/>
      <feComposite operator="in" in2="blur-2"/>
      <feComposite in="SourceGraphic"/>
    </filter>
    <filter id="Icon_simple-javascript" x="22" y="9" width="78" height="78" filterUnits="userSpaceOnUse">
      <feOffset dx="3" dy="3" input="SourceAlpha"/>
      <feGaussianBlur stdDeviation="3" result="blur-3"/>
      <feFlood flood-opacity="0.161"/>
      <feComposite operator="in" in2="blur-3"/>
      <feComposite in="SourceGraphic"/>
    </filter>
  </defs>
  <g id="Group_18" data-name="Group 18" transform="translate(-893 -438)">
    <g transform="matrix(1, 0, 0, 1, 893, 438)" filter="url(#Rectangle_30)">
      <rect id="Rectangle_30-2" data-name="Rectangle 30" width="103" height="118" rx="15" transform="translate(6 6)" fill="#0f2d66"/>
    </g>
    <g transform="matrix(1, 0, 0, 1, 893, 438)" filter="url(#JavaScript)">
      <text id="JavaScript-2" data-name="JavaScript" transform="translate(23 104)" fill="#fff" font-size="15" font-family="Roboto-Regular, Roboto"><tspan x="0" y="0">JavaScript</tspan></text>
    </g>
    <g transform="matrix(1, 0, 0, 1, 893, 438)" filter="url(#Icon_simple-javascript)">
      <path id="Icon_simple-javascript-2" data-name="Icon simple-javascript" d="M0,0H60V60H0ZM55.085,45.69c-.437-2.738-2.22-5.038-7.507-7.183-1.84-.862-3.885-1.463-4.493-2.85A2.952,2.952,0,0,1,42.97,33.9c.375-1.615,2.287-2.1,3.788-1.65A4.067,4.067,0,0,1,49.2,34.5c2.585-1.69,2.585-1.69,4.387-2.813a10.318,10.318,0,0,0-1.465-1.95c-1.575-1.763-3.673-2.663-7.085-2.585l-1.763.222A8.059,8.059,0,0,0,39,29.882,7.843,7.843,0,0,0,40.42,41.06c3.412,2.55,8.4,3.11,9.04,5.512.6,2.925-2.175,3.863-4.915,3.525a6.582,6.582,0,0,1-4.388-3.34l-4.575,2.627a10.11,10.11,0,0,0,2.025,2.772c4.35,4.39,15.225,4.165,17.178-2.51a8.461,8.461,0,0,0,.185-4.125l.115.168ZM32.627,27.577h-5.62c0,4.845-.023,9.66-.023,14.513,0,3.08.157,5.907-.345,6.778-.825,1.722-2.95,1.5-3.915,1.2A4.824,4.824,0,0,1,20.65,47.93a2.145,2.145,0,0,0-.317-.49L15.77,50.252a8.843,8.843,0,0,0,3.31,3.792A11,11,0,0,0,27.1,55.057a7.022,7.022,0,0,0,4.527-3.528c1.275-2.325,1.005-5.175.993-8.365.03-5.135,0-10.272,0-15.448l.01-.14Z" transform="translate(28 15)" fill="#fff"/>
    </g>
  </g>
</svg>
