<svg xmlns="http://www.w3.org/2000/svg" xmlns:xlink="http://www.w3.org/1999/xlink" width="121" height="136" viewBox="0 0 121 136">
  <defs>
    <filter id="Rectangle_34" x="0" y="0" width="121" height="136" filterUnits="userSpaceOnUse">
      <feOffset dx="3" dy="3" input="SourceAlpha"/>
      <feGaussianBlur stdDeviation="3" result="blur"/>
      <feFlood flood-opacity="0.161"/>
      <feComposite operator="in" in2="blur"/>
      <feComposite in="SourceGraphic"/>
    </filter>
    <filter id="Adobe" x="23" y="78" width="76" height="42" filterUnits="userSpaceOnUse">
      <feOffset dx="3" dy="3" input="SourceAlpha"/>
      <feGaussianBlur stdDeviation="3" result="blur-2"/>
      <feFlood flood-opacity="0.161"/>
      <feComposite operator="in" in2="blur-2"/>
      <feComposite in="SourceGraphic"/>
    </filter>
    <filter id="Icon_simple-adobephotoshop" x="22" y="11" width="78" height="78" filterUnits="userSpaceOnUse">
      <feOffset dx="3" dy="3" input="SourceAlpha"/>
      <feGaussianBlur stdDeviation="3" result="blur-3"/>
      <feFlood flood-opacity="0.161"/>
      <feComposite operator="in" in2="blur-3"/>
      <feComposite in="SourceGraphic"/>
    </filter>
  </defs>
  <g id="Group_14" data-name="Group 14" transform="translate(-896 -578)">
    <g transform="matrix(1, 0, 0, 1, 896, 578)" filter="url(#Rectangle_34)">
      <rect id="Rectangle_34-2" data-name="Rectangle 34" width="103" height="118" rx="15" transform="translate(6 6)" fill="#0f2d66"/>
    </g>
    <g transform="matrix(1, 0, 0, 1, 896, 578)" filter="url(#Adobe)">
      <text id="Adobe-2" data-name="Adobe" transform="translate(29 103)" fill="#fff" font-size="20" font-family="Roboto-Regular, Roboto"><tspan x="0" y="0">Adobe</tspan></text>
    </g>
    <g transform="matrix(1, 0, 0, 1, 896, 578)" filter="url(#Icon_simple-adobephotoshop)">
      <path id="Icon_simple-adobephotoshop-2" data-name="Icon simple-adobephotoshop" d="M0,.45v60H60V.45ZM2.5,3.014h55V57.886H2.5ZM14.5,14.5c0-.172.35-.3.56-.3,1.61-.085,3.97-.128,6.445-.128,6.93,0,9.625,3.9,9.625,8.887,0,6.513-4.605,9.308-10.255,9.308-.95,0-1.275-.044-1.937-.044v9.851c0,.213-.083.3-.287.3H14.79c-.208,0-.287-.077-.287-.29V14.5Zm4.437,13.621c.575.041,1.03.041,2.025.041,2.925,0,5.675-1.056,5.675-5.118,0-3.256-1.965-4.908-5.305-4.908-.99,0-1.937.041-2.392.085v9.908Zm21.517-3.046c-1.98,0-2.64,1.015-2.64,1.862,0,.931.45,1.564,3.092,2.962,3.92,1.949,5.155,3.808,5.155,6.556,0,4.1-3.05,6.308-7.175,6.308a10.7,10.7,0,0,1-5.125-1.1c-.163-.085-.2-.21-.2-.423V37.476c0-.256.12-.341.285-.215a9.043,9.043,0,0,0,5.03,1.523c1.98,0,2.805-.846,2.805-1.99,0-.931-.575-1.736-3.092-3.09-3.55-1.744-5.035-3.513-5.035-6.479,0-3.3,2.515-6.051,6.887-6.051a11.391,11.391,0,0,1,4.485.718.564.564,0,0,1,.25.508v3.513c0,.213-.125.341-.375.256a8.776,8.776,0,0,0-4.358-1.1Z" transform="translate(28 16.55)" fill="#fff"/>
    </g>
  </g>
</svg>
