<svg xmlns="http://www.w3.org/2000/svg" xmlns:xlink="http://www.w3.org/1999/xlink" width="121" height="136" viewBox="0 0 121 136">
  <defs>
    <filter id="Rectangle_32" x="0" y="0" width="121" height="136" filterUnits="userSpaceOnUse">
      <feOffset dx="3" dy="3" input="SourceAlpha"/>
      <feGaussianBlur stdDeviation="3" result="blur"/>
      <feFlood flood-opacity="0.161"/>
      <feComposite operator="in" in2="blur"/>
      <feComposite in="SourceGraphic"/>
    </filter>
  </defs>
  <g id="Group_21" data-name="Group 21" transform="translate(-620 -718)">
    <g transform="matrix(1, 0, 0, 1, 620, 718)" filter="url(#Rectangle_32)">
      <rect id="Rectangle_32-2" data-name="Rectangle 32" width="103" height="118" rx="15" transform="translate(6 6)" fill="#0f2d66"/>
    </g>
    <path id="Icon_awesome-sass" data-name="Icon awesome-sass" d="M34.243,42.3C34.209,42.365,34.175,42.42,34.243,42.3Zm28.263-9.87a14.88,14.88,0,0,0-6.58,1.532,13.973,13.973,0,0,1-1.475-3.415,9.115,9.115,0,0,1-.125-2.87,24.17,24.17,0,0,1,.862-3.086c-.011-.125-.159-.749-1.622-.76s-2.723.284-2.869.669a13.935,13.935,0,0,0-.6,2.167c-.261,1.327-2.926,6.069-4.435,8.543a8.809,8.809,0,0,1-1.01-2.5,9.115,9.115,0,0,1-.125-2.87,24.171,24.171,0,0,1,.862-3.086c-.011-.125-.159-.749-1.621-.76s-2.723.284-2.87.669-.306,1.293-.6,2.167S36.452,37.6,35.522,39.654c-.476,1.044-.885,1.883-1.18,2.45-.045.091-.079.147-.1.193.034-.057.057-.113.057-.091-.25.488-.4.76-.4.76v.011c-.193.363-.408.692-.511.692a4.706,4.706,0,0,1,.034-2.258c.533-2.745,1.792-7.011,1.781-7.159-.011-.079.238-.817-.828-1.214a1.335,1.335,0,0,0-1.5.25c-.091,0-.159.227-.159.227s1.146-4.81-2.2-4.81c-2.087,0-4.992,2.292-6.419,4.368-.9.488-2.836,1.543-4.878,2.666-.783.431-1.588.874-2.348,1.293-.057-.057-.1-.113-.159-.17-4.06-4.334-11.557-7.4-11.239-13.217.113-2.121.851-7.692,14.416-14.453C31.011,3.657,39.9,5.177,41.43,8.558c2.2,4.822-4.752,13.8-16.3,15.089-4.4.488-6.714-1.214-7.292-1.849-.6-.669-.692-.7-.919-.579-.374.2-.136.794,0,1.146a6.836,6.836,0,0,0,4.174,3.279c2.121.692,7.281,1.078,13.52-1.339,7.009-2.7,12.464-10.222,10.865-16.518-1.629-6.4-12.239-8.5-22.271-4.935-5.978,2.121-12.442,5.457-17.092,9.8C.592,17.827-.292,22.33.071,24.214c1.292,6.682,10.5,11.038,14.188,14.26-.182.1-.352.193-.511.284-1.848.919-8.869,4.595-10.627,8.475-1.985,4.4.329,7.556,1.848,7.987,4.741,1.316,9.6-1.055,12.2-4.946s2.292-8.974,1.089-11.288c-.011-.034-.034-.057-.045-.091.476-.284.964-.567,1.452-.851.94-.556,1.859-1.066,2.665-1.509a17.621,17.621,0,0,0-.953,4.833c-.2,2.5.828,5.729,2.167,7a2.381,2.381,0,0,0,1.746.567c1.566,0,2.269-1.293,3.051-2.836.964-1.883,1.815-4.073,1.815-4.073s-1.066,5.922,1.849,5.922c1.065,0,2.132-1.373,2.609-2.076v.011s.023-.045.079-.136c.113-.17.17-.272.17-.272V45.44c.431-.737,1.373-2.428,2.79-5.219,1.838-3.608,3.6-8.111,3.6-8.111a22.831,22.831,0,0,0,.7,2.927,27.4,27.4,0,0,0,1.52,3.4c-.431.59-.692.93-.692.93a.035.035,0,0,0,.011.023c-.34.454-.726.942-1.123,1.418a40.042,40.042,0,0,0-3.4,4.266,1.159,1.159,0,0,0,.318,1.554,2.758,2.758,0,0,0,1.78.284,7.867,7.867,0,0,0,2.666-.613,9.325,9.325,0,0,0,2.291-1.2,5.122,5.122,0,0,0,2.2-4.515,9.4,9.4,0,0,0-.828-3.2c.125-.182.261-.374.386-.567a60.309,60.309,0,0,0,3.981-6.877,22.83,22.83,0,0,0,.7,2.927,20.011,20.011,0,0,0,1.292,2.916,12.471,12.471,0,0,0-3.867,5c-.84,2.416-.182,3.506,1.055,3.755a3.806,3.806,0,0,0,1.94-.4,9.015,9.015,0,0,0,2.449-1.259c1.418-1.044,2.79-2.507,2.7-4.493a8.44,8.44,0,0,0-.613-2.655,13.847,13.847,0,0,1,7.044-.817c6.317.737,7.553,4.685,7.315,6.33a4.194,4.194,0,0,1-2.008,2.836c-.442.272-.579.374-.545.579.057.295.261.284.635.216a4.928,4.928,0,0,0,3.436-4.39c.182-3.857-3.527-8.1-10.1-8.066ZM13.817,48.843c-2.086,2.28-5.013,3.142-6.271,2.416-1.35-.785-.817-4.141,1.757-6.571a33.614,33.614,0,0,1,4.922-3.676c.306-.182.749-.454,1.293-.783.091-.057.136-.079.136-.079.1-.068.216-.125.329-.193a9.055,9.055,0,0,1-2.167,8.883ZM29.059,38.474c-.726,1.781-2.256,6.319-3.187,6.081-.794-.2-1.282-3.664-.159-7.068A15.647,15.647,0,0,1,28.2,32.938c1.145-1.282,2.4-1.69,2.7-1.18C31.294,32.427,29.513,37.362,29.059,38.474Zm12.593,6.013c-.306.159-.59.261-.726.182-.1-.057.125-.272.125-.272s1.577-1.69,2.2-2.462c.363-.454.783-.987,1.235-1.577,0,.057.011.113.011.182-.015,2.031-1.965,3.4-2.85,3.948Zm9.709-2.212c-.227-.159-.193-.692.567-2.348a8.818,8.818,0,0,1,2.156-2.779,4.1,4.1,0,0,1,.216,1.225,4,4,0,0,1-2.937,3.9Z" transform="translate(641 754.875)" fill="#fff"/>
  </g>
</svg>
