<svg xmlns="http://www.w3.org/2000/svg" xmlns:xlink="http://www.w3.org/1999/xlink" width="121" height="136" viewBox="0 0 121 136">
  <defs>
    <filter id="Rectangle_31" x="0" y="0" width="121" height="136" filterUnits="userSpaceOnUse">
      <feOffset dx="3" dy="3" input="SourceAlpha"/>
      <feGaussianBlur stdDeviation="3" result="blur"/>
      <feFlood flood-opacity="0.161"/>
      <feComposite operator="in" in2="blur"/>
      <feComposite in="SourceGraphic"/>
    </filter>
    <filter id="Wordpress" x="16" y="84" width="90" height="36" filterUnits="userSpaceOnUse">
      <feOffset dx="3" dy="3" input="SourceAlpha"/>
      <feGaussianBlur stdDeviation="3" result="blur-2"/>
      <feFlood flood-opacity="0.161"/>
      <feComposite operator="in" in2="blur-2"/>
      <feComposite in="SourceGraphic"/>
    </filter>
    <filter id="Icon_awesome-wordpress" x="22" y="12" width="78" height="78" filterUnits="userSpaceOnUse">
      <feOffset dx="3" dy="3" input="SourceAlpha"/>
      <feGaussianBlur stdDeviation="3" result="blur-3"/>
      <feFlood flood-opacity="0.161"/>
      <feComposite operator="in" in2="blur-3"/>
      <feComposite in="SourceGraphic"/>
    </filter>
  </defs>
  <g id="Group_17" data-name="Group 17" transform="translate(-1033 -438)">
    <g transform="matrix(1, 0, 0, 1, 1033, 438)" filter="url(#Rectangle_31)">
      <rect id="Rectangle_31-2" data-name="Rectangle 31" width="103" height="118" rx="15" transform="translate(6 6)" fill="#0f2d66"/>
    </g>
    <g transform="matrix(1, 0, 0, 1, 1033, 438)" filter="url(#Wordpress)">
      <text id="Wordpress-2" data-name="Wordpress" transform="translate(22 104)" fill="#fff" font-size="15" font-family="Roboto-Regular, Roboto"><tspan x="0" y="0">Wordpress</tspan></text>
    </g>
    <g transform="matrix(1, 0, 0, 1, 1033, 438)" filter="url(#Icon_awesome-wordpress)">
      <path id="Icon_awesome-wordpress-2" data-name="Icon awesome-wordpress" d="M7.058,20.087,19.337,53.716A25.74,25.74,0,0,1,7.058,20.087Zm40.875,9.181a13.571,13.571,0,0,0-2.117-7.1c-1.306-2.117-2.528-3.919-2.528-6.036a4.454,4.454,0,0,1,4.319-4.573c.109,0,.218.012.339.024A25.732,25.732,0,0,0,9.054,16.421c.6.024,1.173.036,1.657.036,2.685,0,6.859-.327,6.859-.327a1.062,1.062,0,0,1,.169,2.117s-1.391.157-2.94.242l9.375,27.871,5.637-16.887-4-10.984c-1.391-.085-2.7-.242-2.7-.242a1.062,1.062,0,0,1,.157-2.117s4.246.327,6.774.327c2.685,0,6.859-.327,6.859-.327a1.062,1.062,0,0,1,.169,2.117s-1.391.157-2.94.242l9.3,27.665L46,37.579C47.087,34.022,47.933,31.47,47.933,29.268ZM31.01,32.813l-7.718,22.44a25.643,25.643,0,0,0,15.81-.411,1.928,1.928,0,0,1-.181-.351L31.01,32.812Zm22.137-14.6a20.049,20.049,0,0,1,.169,2.649,24.177,24.177,0,0,1-1.96,9.218l-7.863,22.73a25.761,25.761,0,0,0,9.653-34.6Zm7.415,12.351a30,30,0,1,1-30-30A30.034,30.034,0,0,1,60.563,30.563Zm-1.379,0A28.621,28.621,0,1,0,30.563,59.183,28.655,28.655,0,0,0,59.183,30.563Z" transform="translate(27.44 17.44)" fill="#fff"/>
    </g>
  </g>
</svg>
