<svg xmlns="http://www.w3.org/2000/svg" xmlns:xlink="http://www.w3.org/1999/xlink" width="121" height="136" viewBox="0 0 121 136">
  <defs>
    <filter id="Rectangle_32" x="0" y="0" width="121" height="136" filterUnits="userSpaceOnUse">
      <feOffset dx="3" dy="3" input="SourceAlpha"/>
      <feGaussianBlur stdDeviation="3" result="blur"/>
      <feFlood flood-opacity="0.161"/>
      <feComposite operator="in" in2="blur"/>
      <feComposite in="SourceGraphic"/>
    </filter>
    <filter id="Adobe" x="22" y="78" width="76" height="42" filterUnits="userSpaceOnUse">
      <feOffset dx="3" dy="3" input="SourceAlpha"/>
      <feGaussianBlur stdDeviation="3" result="blur-2"/>
      <feFlood flood-opacity="0.161"/>
      <feComposite operator="in" in2="blur-2"/>
      <feComposite in="SourceGraphic"/>
    </filter>
    <filter id="Icon_simple-adobexd" x="21.801" y="11" width="78" height="78" filterUnits="userSpaceOnUse">
      <feOffset dx="3" dy="3" input="SourceAlpha"/>
      <feGaussianBlur stdDeviation="3" result="blur-3"/>
      <feFlood flood-opacity="0.161"/>
      <feComposite operator="in" in2="blur-3"/>
      <feComposite in="SourceGraphic"/>
    </filter>
  </defs>
  <g id="Group_16" data-name="Group 16" transform="translate(-619 -578)">
    <g transform="matrix(1, 0, 0, 1, 619, 578)" filter="url(#Rectangle_32)">
      <rect id="Rectangle_32-2" data-name="Rectangle 32" width="103" height="118" rx="15" transform="translate(6 6)" fill="#0f2d66"/>
    </g>
    <g transform="matrix(1, 0, 0, 1, 619, 578)" filter="url(#Adobe)">
      <text id="Adobe-2" data-name="Adobe" transform="translate(28 103)" fill="#fff" font-size="20" font-family="Roboto-Regular, Roboto"><tspan x="0" y="0">Adobe</tspan></text>
    </g>
    <g transform="matrix(1, 0, 0, 1, 619, 578)" filter="url(#Icon_simple-adobexd)">
      <path id="Icon_simple-adobexd-2" data-name="Icon simple-adobexd" d="M49.375.45H10.625A10.755,10.755,0,0,0,0,11.347V49.553a10.755,10.755,0,0,0,10.625,10.9h38.75A10.755,10.755,0,0,0,60,49.553V11.347A10.755,10.755,0,0,0,49.375.45Zm8.1,48.1a9.414,9.414,0,0,1-2.635,6.594,8.945,8.945,0,0,1-6.415,2.739H11.575A9.209,9.209,0,0,1,2.5,48.578V12.322a9.209,9.209,0,0,1,9.075-9.308H48.4a9.194,9.194,0,0,1,9.075,9.308ZM23.725,28.527l7,13.795c.125.205.05.41-.15.41h-4.35A.49.49,0,0,1,25.7,42.4c-1.6-3.385-3.225-6.769-4.9-10.41h-.05C19.25,35.424,17.6,39.04,16,42.424a.479.479,0,0,1-.45.282H11.425c-.25,0-.275-.205-.15-.359l6.85-13.385L11.5,15.424c-.15-.205,0-.359.15-.359h4.3a.393.393,0,0,1,.45.282c1.575,3.385,3.175,6.872,4.675,10.282h.05c1.45-3.385,3.05-6.9,4.6-10.256.125-.205.2-.333.45-.333H30.2c.2,0,.275.154.15.359Zm8.225,4.179c0-5.974,3.875-10.641,10.025-10.641a10.811,10.811,0,0,1,1.3.051V15.322a.254.254,0,0,1,.25-.256h3.95c.2,0,.25.077.25.205V38.809a18.727,18.727,0,0,0,.125,2.513c0,.154-.05.205-.2.282a14.582,14.582,0,0,1-6.4,1.487C35.825,43.117,31.95,39.681,31.95,32.706Zm11.325-6.564a3.7,3.7,0,0,0-1.45-.256c-3.15,0-5.35,2.487-5.35,6.615,0,4.718,2.25,6.615,5.075,6.615a4.61,4.61,0,0,0,1.725-.282V26.142Z" transform="translate(27.8 16.55)" fill="#fff"/>
    </g>
  </g>
</svg>
