<svg id="github" xmlns="http://www.w3.org/2000/svg" width="100" height="100" viewBox="0 0 100 100">
  <path id="Path_13" data-name="Path 13" d="M50,0C22.389,0,0,22.952,0,51.266,0,73.917,14.327,93.133,34.193,99.912c2.5.474,3.416-1.112,3.416-2.466,0-1.222-.047-5.261-.068-9.545C23.631,91,20.7,81.852,20.7,81.852c-2.274-5.926-5.552-7.5-5.552-7.5-4.536-3.182.342-3.117.342-3.117,5.021.362,7.665,5.283,7.665,5.283,4.459,7.838,11.7,5.571,14.55,4.262a11.022,11.022,0,0,1,3.174-6.855C29.77,72.628,18.1,68.232,18.1,48.588a20.12,20.12,0,0,1,5.152-13.76c-.519-1.291-2.231-6.505.484-13.567,0,0,4.2-1.378,13.754,5.255a46.3,46.3,0,0,1,25.041,0c9.544-6.633,13.736-5.255,13.736-5.255,2.721,7.062,1.009,12.276.49,13.567A20.082,20.082,0,0,1,81.9,48.588c0,19.69-11.7,24.026-22.831,25.295,1.793,1.591,3.391,4.711,3.391,9.494,0,6.859-.058,12.38-.058,14.069,0,1.364.9,2.963,3.435,2.459C85.691,93.119,100,73.909,100,51.266,100,22.952,77.614,0,50,0" transform="translate(0)" fill="#172c62"/>
  <path id="Path_14" data-name="Path 14" d="M45.673,180.316c-.109.247-.5.321-.853.152s-.564-.5-.447-.748.5-.325.857-.155.568.5.443.751m2.448,2.184c-.237.22-.7.118-1.016-.23a.761.761,0,0,1-.146-1.034c.245-.22.695-.117,1.021.23s.389.812.141,1.034m1.68,2.794c-.305.212-.8.013-1.112-.429s-.3-.973.007-1.186.8-.021,1.112.418.3.981-.007,1.2m2.84,3.236c-.273.3-.854.22-1.279-.19a.957.957,0,0,1-.283-1.272c.276-.3.86-.217,1.289.19s.564.974.273,1.272m3.67,1.093c-.12.39-.679.567-1.243.4s-.931-.627-.818-1.021.679-.577,1.247-.4.931.623.814,1.019m4.177.463c.014.411-.464.751-1.056.758s-1.076-.319-1.083-.723.467-.752,1.062-.761,1.076.318,1.076.726m4.1-.157c.071.4-.34.812-.928.921s-1.112-.142-1.186-.539.347-.822.924-.928,1.115.139,1.19.546" transform="translate(-26.931 -107.031)" fill="#172c62"/>
</svg>
