<svg xmlns="http://www.w3.org/2000/svg" width="100" height="100" viewBox="0 0 100 100">
  <g id="Instagram" transform="translate(-4.079 -4.079)">
    <path id="Path_11" data-name="Path 11" d="M54.079,13.088c13.351,0,14.932.051,20.2.292A27.668,27.668,0,0,1,83.568,15.1a15.491,15.491,0,0,1,5.749,3.74,15.492,15.492,0,0,1,3.74,5.749,27.663,27.663,0,0,1,1.722,9.284c.241,5.272.292,6.854.292,20.2s-.051,14.932-.292,20.2a27.674,27.674,0,0,1-1.722,9.284,16.558,16.558,0,0,1-9.489,9.489,27.662,27.662,0,0,1-9.284,1.722c-5.271.241-6.853.292-20.2.292s-14.933-.051-20.2-.292a27.673,27.673,0,0,1-9.284-1.722,15.491,15.491,0,0,1-5.749-3.74,15.492,15.492,0,0,1-3.74-5.749,27.662,27.662,0,0,1-1.722-9.284c-.241-5.272-.292-6.854-.292-20.2s.051-14.932.292-20.2A27.669,27.669,0,0,1,15.1,24.591a15.491,15.491,0,0,1,3.741-5.749A15.491,15.491,0,0,1,24.59,15.1a27.661,27.661,0,0,1,9.284-1.722c5.272-.241,6.854-.292,20.2-.292m0-9.009c-13.579,0-15.282.058-20.615.3A36.7,36.7,0,0,0,21.328,6.7a24.509,24.509,0,0,0-8.856,5.767A24.509,24.509,0,0,0,6.7,21.327,36.707,36.707,0,0,0,4.381,33.464c-.244,5.332-.3,7.036-.3,20.615s.058,15.283.3,20.615A36.7,36.7,0,0,0,6.705,86.831a24.51,24.51,0,0,0,5.767,8.856,24.509,24.509,0,0,0,8.856,5.767,36.7,36.7,0,0,0,12.137,2.324c5.333.243,7.036.3,20.615.3s15.282-.058,20.615-.3a36.7,36.7,0,0,0,12.137-2.324,25.567,25.567,0,0,0,14.623-14.623,36.7,36.7,0,0,0,2.324-12.137c.243-5.333.3-7.036.3-20.615s-.058-15.283-.3-20.615a36.7,36.7,0,0,0-2.324-12.137,24.509,24.509,0,0,0-5.767-8.856A24.509,24.509,0,0,0,86.83,6.7,36.706,36.706,0,0,0,74.693,4.381c-5.332-.244-7.035-.3-20.615-.3h0Z" fill="#0f2d66"/>
    <path id="Path_12" data-name="Path 12" d="M150.851,126.635a24.216,24.216,0,1,0,24.216,24.216A24.216,24.216,0,0,0,150.851,126.635Zm0,39.936a15.719,15.719,0,1,1,15.719-15.719,15.719,15.719,0,0,1-15.719,15.719Z" transform="translate(-96.772 -96.772)" fill="#0f2d66"/>
    <circle id="Ellipse_1" data-name="Ellipse 1" cx="6.36" cy="6.36" r="6.36" transform="translate(74.19 21.247)" fill="#0f2d66"/>
  </g>
</svg>
