<svg id="linkedin" xmlns="http://www.w3.org/2000/svg" width="100" height="100" viewBox="0 0 100 100">
  <path id="Path_9" data-name="Path 9" d="M246.053,203.829v-.144c-.029.048-.07.1-.1.144Z" transform="translate(-191.9 -158.918)" fill="#0f2d66" fill-rule="evenodd"/>
  <path id="Path_10" data-name="Path 10" d="M0,0V100H100V0ZM31.1,83.077H16.267V38.441H31.1ZM23.685,32.349h-.1c-4.977,0-8.2-3.429-8.2-7.715,0-4.38,3.32-7.711,8.4-7.711s8.2,3.332,8.3,7.711C32.08,28.92,28.862,32.349,23.685,32.349Zm60.93,50.729H69.775V59.2c0-6-2.144-10.092-7.515-10.092a8.115,8.115,0,0,0-7.613,5.427,10.168,10.168,0,0,0-.492,3.617V83.078H39.311s.2-40.449,0-44.636H54.154v6.325a14.738,14.738,0,0,1,13.375-7.373c9.766,0,17.087,6.378,17.087,20.087Z" fill="#0f2d66" fill-rule="evenodd"/>
</svg>
